
<svg height="512pt" viewBox="-131 0 512 512" width="512pt" xmlns="http://www.w3.org/2000/svg"><path d="m238.3125 452.359375c-2.21875 6.09375-5.253906 11.730469-9.046875 16.65625-20.238281 26.269531-56.269531 35.394531-92.101563 35.394531h-104.484374c-10.5625 0-17.363282-10.289062-12.050782-18.496094 6.101563-9.441406 15.28125-14.367187 27.988282-20.792968l14.664062-6.203125 157.472656-66.570313c6.214844-3.125 14.097656-.515625 16.496094 5.515625 7.132812 17.980469 7.121094 37.902344 1.0625 54.496094zm0 0" fill="#a88ac8"/><path d="m238.3125 452.359375c-17.902344 7.875-38.957031 11-59.945312 11h-104.484376c-4.378906 0-8.125-1.769531-10.601562-4.441406l157.472656-66.570313c6.214844-3.125 14.097656-.515625 16.496094 5.515625 7.132812 17.980469 7.121094 37.902344 1.0625 54.496094zm0 0" fill="#b9a1d3"/><path d="m238.039062 359.300781c-.40625 1.769531-.890624 3.511719-1.457031 5.230469-5.34375 16.140625-17.75 29.789062-34.222656 38.105469l-171.105469 72.054687c-6.203125 3.136719-14.09375.515625-16.484375-5.511718-14.984375-37.773438 3.351563-77.035157 39.363281-95.195313l2.46875-.984375 153.46875-60.769531c4.886719-2.460938 11.089844-1.4375 14.582032 2.496093 14.609375 16.484376 16.582031 30.53125 13.386718 44.574219zm0 0" fill="#ff94d2"/><path d="m238.039062 359.300781c-.40625 1.769531-.890624 3.511719-1.457031 5.230469l-164.125 69.109375c-6.203125 3.136719-14.085937.515625-16.484375-5.511719-7.515625-18.953125-6.644531-38.28125.628906-55.128906l153.46875-60.769531c4.886719-2.460938 11.089844-1.4375 14.582032 2.496093 14.609375 16.484376 16.582031 30.53125 13.386718 44.574219zm0 0" fill="#ffaee0"/><path d="m238.039062 274.292969c-.335937 1.46875-.730468 2.914062-1.183593 4.332031-5.152344 16.453125-17.6875 29.929688-34.464844 38.410156l-174.382813 68.433594c-6.203124 3.136719-14.097656.515625-16.484374-5.515625-14.964844-37.683594 6.496093-74.414063 42.367187-92.617187.078125-.039063.160156-.078126.242187-.121094l156.28125-60.519532c4.878907-2.46875 11.078126-1.445312 14.570313 2.492188 14.613281 16.480469 16.25 31.074219 13.054687 45.105469zm0 0" fill="#a6e0ec"/><path d="m238.039062 274.292969c-.335937 1.46875-.730468 2.914062-1.183593 4.332031l-167.644531 65.792969c-6.203126 3.136719-14.085938.515625-16.484376-5.515625-7.164062-18.050782-5.96875-35.882813 1.164063-51.566406.078125-.039063.160156-.078126.242187-.121094l156.28125-60.519532c4.878907-2.46875 11.078126-1.445312 14.570313 2.492188 14.613281 16.480469 16.25 31.074219 13.054687 45.105469zm0 0" fill="#c2eaf2"/><path d="m239.375 188.0625c-.304688 1.335938-.660156 2.652344-1.0625 3.949219-5.101562 16.582031-17.808594 30-34.707031 38.539062l-172.410157 66.488281c-6.203124 3.136719-14.097656.519532-16.484374-5.503906-14.984376-37.769531 3.410156-73.804687 39.421874-91.964844l1.578126-.589843 156.039062-58.523438c4.886719-2.460937 11.078125-1.4375 14.582031 2.5 14.609375 16.480469 16.238281 31.0625 13.042969 45.105469zm0 0" fill="#a88ac8"/><path d="m239.375 188.0625c-.304688 1.335938-.660156 2.652344-1.0625 3.949219l-165.914062 63.976562c-6.203126 3.136719-14.085938.519531-16.484376-5.503906-7.203124-18.171875-6.6875-35.941406-.203124-51.503906l156.039062-58.523438c4.886719-2.460937 11.078125-1.4375 14.582031 2.5 14.609375 16.480469 16.238281 31.0625 13.042969 45.105469zm0 0" fill="#b9a1d3"/><path d="m240.335938 102.25c-.273438 1.222656-.597657 2.425781-.953126 3.609375-5.007812 16.71875-17.605468 30.003906-34.625 38.605469l-172.542968 64.046875c-6.203125 3.136719-14.09375.519531-16.480469-5.511719-14.988281-37.773438 3.347656-72.835938 39.359375-91.007812l1.367188-.496094 156.25-56.84375c4.886718-2.472656 11.089843-1.449219 14.582031 2.496094 14.609375 16.484374 16.25 31.066406 13.042969 45.101562zm0 0" fill="#ff94d2"/><path d="m240.335938 102.25c-.273438 1.222656-.597657 2.425781-.953126 3.609375l-165.953124 61.601563c-6.214844 3.136718-14.097657.515624-16.484376-5.511719-7.125-17.929688-6.71875-35.253907-.484374-50.453125l156.25-56.84375c4.886718-2.472656 11.089843-1.449219 14.582031 2.496094 14.609375 16.484374 16.25 31.066406 13.042969 45.101562zm0 0" fill="#ffaee0"/><path d="m231.136719 33.683594c-6.101563 9.441406-15.652344 18.316406-28.363281 24.742187l-172.539063 64.039063c-6.203125 3.136718-14.097656.515625-16.496094-5.515625-9.742187-24.554688-5.390625-47.992188 8.761719-66.367188 8.257812-10.726562 19.144531-18.585937 31.582031-24.140625 18.019531-8.054687 39.300781-11.253906 60.507813-11.253906h104.484375c5.605469 0 10.140625 2.894531 12.386719 6.832031 1.984374 3.488281 2.164062 7.808594-.324219 11.664063zm0 0" fill="#a6e0ec"/><path d="m231.460938 22.019531-160.015626 59.394531c-6.210937 3.136719-14.09375.515626-16.492187-5.503906-6.972656-17.546875-6.730469-34.515625-.871094-49.46875 18.019531-8.054687 39.300781-11.253906 60.507813-11.253906h104.484375c5.605469 0 10.140625 2.894531 12.386719 6.832031zm0 0" fill="#c2eaf2"/><path d="m19.84375 123.425781c-17.976562 21.386719-23.179688 48.785157-12.128906 76.625 2.171875 5.46875 7.082031 9.519531 12.945312 11.003907-18.773437 21.769531-24.160156 50.382812-13.007812 78.496093 1.972656 4.96875 6.308594 9.074219 12.167968 10.796875-8.691406 9.765625-14.964843 20.9375-18.195312 32.820313-1.097656 4.046875 1.289062 8.214843 5.332031 9.316406 4.054688 1.097656 8.21875-1.296875 9.316407-5.335937 5.152343-18.957032 20.066406-35.898438 40.949218-46.535157 168.695313-65.328125 157.460938-61.203125 158.859375-61.203125 1.3125 0 2.519531.476563 3.226563 1.273438 8.195312 9.242187 13.292968 19.109375 12.410156 31.320312-.300781 4.179688 2.84375 7.816406 7.023438 8.117188 4.1875.296875 7.8125-2.84375 8.117187-7.023438 1.601563-22.164062-13.035156-40.679687-19.09375-45.109375 9.617187-9.289062 16.164063-20.546875 19.007813-33.023437 4.351562-19.085938-.339844-35.554688-14.765626-51.828125-.992187-1.113281-2.113281-2.082031-3.320312-2.914063 6.964844-6.917968 12.246094-14.902344 15.589844-23.746094 1.480468-3.921874-.496094-8.300781-4.414063-9.785156-3.921875-1.484375-8.300781.496094-9.78125 4.414063-4.761719 12.589843-14.785156 23.109375-29 30.46875-.308593.113281-173.03125 64.304687-173.25 64.414062-2.367187 1.199219-5.332031.167969-6.007812-1.535156-13.414063-33.808594 2.777343-64.628906 35.332031-81.230469 170.613281-62.070312 159.132812-58.066406 160.265625-58.066406 1.316406 0 2.523437.476562 3.230469 1.273438 5.875 6.625 9.578125 13.015624 11.328125 19.539062 1.085937 4.046875 5.253906 6.449219 9.296875 5.363281 4.046875-1.085937 6.449218-5.25 5.363281-9.300781-3.585937-13.359375-13.746094-26.527344-19.933594-29.773438 3.757813-3.722656 7.058594-7.757812 9.835938-12.058593 8.5625-13.238281-1.800781-30.199219-18.429688-30.199219h-104.484375c-94.09375 0-128.425781 60.441406-107.902344 112.15625 2.207032 5.546875 7.363282 9.992188 14.117188 11.269531zm37.34375 78.316407c164.738281-61.777344 157.347656-58.96875 157.980469-59.289063 1.832031-.925781 4.289062-.585937 5.480469.753906 14.074218 15.871094 13.621093 28.308594 11.324218 38.386719-3.519531 15.449219-14.6875 28.664062-31.457031 37.234375-.550781.210937-172.21875 66.394531-172.746094 66.660156-2.378906 1.203125-5.335937.15625-6.007812-1.539062-12.875-32.449219 1.027343-64.675781 35.425781-82.207031zm56.441406-186.5625h104.484375c4.355469 0 7.722657 3.625 5.683594 6.78125-5.738281 8.878906-14.390625 16.441406-25.039063 21.898437-187.179687 69.476563-174.0625 65.511719-176.945312 64.417969-.460938-.171875-1.566406-.6875-1.980469-1.726563-16.71875-42.125 11.230469-91.371093 93.796875-91.371093zm0 0"/><path d="m244.300781 395.058594c-1.820312-4.570313-5.648437-8.421875-10.804687-10.347656 5.742187-7.664063 9.839844-16.300782 11.9375-25.496094 4.238281-18.589844-.5625-34.890625-15.101563-51.292969-.980469-1.105469-2.089843-2.0625-3.28125-2.886719 3.109375-3.105468 5.90625-6.425781 8.335938-9.9375 2.382812-3.445312 1.523437-8.171875-1.921875-10.558594-3.449219-2.382812-8.175782-1.523437-10.558594 1.921876-5.625 8.128906-13.792969 15.074218-23.628906 20.105468-.523438.203125-174.195313 68.332032-174.695313 68.585938-2.367187 1.199218-5.332031.164062-6.007812-1.539063-1.308594-3.289062-2.328125-6.648437-3.035157-9.980469-.871093-4.097656-4.902343-6.71875-9-5.847656-4.097656.871094-6.71875 4.898438-5.847656 9 .886719 4.164063 2.152344 8.347656 3.773438 12.429688 2.433594 6.125 8.300781 10.476562 15.089844 11.433594-17.628907 22.417968-22.804688 51.925781-11.839844 79.558593 1.535156 3.871094 4.480468 7.09375 8.238281 9.160157-11.820313 15.839843.597656 32.632812 16.726563 32.632812h104.484374c31.285157 0 73.703126-6.652344 98.109376-38.351562 16.121093-20.9375 19.664062-51.785157 9.027343-78.589844zm-220.503906 71.277344c-.457031-.171876-1.5625-.6875-1.976563-1.726563-12.910156-32.539063 1.988282-68.433594 35.429688-85.472656.488281-.191407 155.773438-61.660157 156.242188-61.898438 1.835937-.921875 4.292968-.585937 5.480468.753907 14.222656 16.042968 13.878906 28.136718 11.664063 37.851562-3.238281 14.195312-12.742188 26.773438-26.402344 35.253906-193.488281 81.789063-177.039063 76.527344-180.4375 75.238282zm199.449219-1.949219c-20.640625 26.808593-58.203125 32.433593-86.082032 32.433593h-104.484374c-4.355469 0-7.722657-3.625-5.683594-6.78125 4.210937-6.515624 10.375-10.519531 19.492187-15.300781 18.941407-7.976562 163.941407-68.671875 177.6875-75.609375 2.378907-1.203125 5.34375-.164062 6.019531 1.535156 8.566407 21.589844 5.777344 47.199219-6.949218 63.722657zm0 0"/></svg>